<svg xmlns="http://www.w3.org/2000/svg" width="69.105" height="66.685" viewBox="0 0 69.105 66.685"><defs><style>.a{fill:#95c1c3;fill-rule:evenodd;}</style></defs><g transform="translate(-479.559 -627.224)"><g transform="matrix(0.849, -0.528, 0.528, 0.849, 479.559, 655.266)"><path class="a" d="M13.688,40.437a9.829,9.829,0,0,1-10-4.747C1.344,31.717.682,27.445.6,23.077.516,18.886.97,14.607.86,10.443A29.311,29.311,0,0,0,.45,5.487C.336,4.9.11,4.255.033,3.626A2.851,2.851,0,0,1,.808,1.106,4.059,4.059,0,0,1,4.772.148,7.858,7.858,0,0,1,9.361,3.436,9.687,9.687,0,0,1,10.5,9.009c-.09,1.681-.42,3.385-.44,5.11a3.887,3.887,0,0,0,.069.765c1.689-2.007,2.931-4.279,4.84-6.191,1.454-1.457,2.6-2.622,4.666-3.143a14.774,14.774,0,0,1,3.42-.4,6.071,6.071,0,0,1,4.911,1.977A5.153,5.153,0,0,1,29,9.176a2.189,2.189,0,0,1,1.338.089,4.177,4.177,0,0,1,1.555,1.115,7.476,7.476,0,0,1,1.75,3.852,4.823,4.823,0,0,1,3.305,3.651l.032,0a8.2,8.2,0,0,0,4.336-2.18c1.494-1.243,2.865-2.719,4.154-3.807a18.97,18.97,0,0,1,2.434-1.956,3.808,3.808,0,0,1,2.488-.608c2.143.315,2.963,2.743,2.584,4.557-.62,2.97-2.584,4.932-4.383,7.21-2.176,2.756-5.2,4.989-7.988,7.085a19.552,19.552,0,0,0-2.793,1.887,25.84,25.84,0,0,0-2.969,4.755c-2.055,3.424-4.376,6.783-7.8,8.961A11.493,11.493,0,0,1,19.432,45.4,6.584,6.584,0,0,1,13.688,40.437Zm-2.6-23.549a2.937,2.937,0,0,0,1.051.777,1.023,1.023,0,0,1-.795,1.885A6.088,6.088,0,0,1,8.009,14.1c.02-1.754.352-3.487.443-5.2a7.712,7.712,0,0,0-.867-4.447A5.6,5.6,0,0,0,4.3,2.139a2.082,2.082,0,0,0-2.048.414c-.312.312-.223.717-.143,1.111.1.49.259.982.347,1.434a31.3,31.3,0,0,1,.447,5.291c.111,4.169-.343,8.453-.262,12.649.078,4.018.651,7.957,2.81,11.612,2.489,4.213,8.669,5.559,11.574,1.3a1.023,1.023,0,1,1,1.69,1.152,7.864,7.864,0,0,1-3.084,2.7c.01.03.019.061.027.093a4.627,4.627,0,0,0,4.089,3.489,9.36,9.36,0,0,0,6.2-1.323c3.154-2,5.252-5.133,7.144-8.287a27.87,27.87,0,0,1,3.233-5.1,21.579,21.579,0,0,1,3.054-2.121c2.651-1.992,5.542-4.1,7.611-6.716,1.6-2.027,3.435-3.718,3.986-6.36a2.536,2.536,0,0,0-.126-1.461.984.984,0,0,0-.752-.654,2.209,2.209,0,0,0-1.506.579c-.684.486-1.3,1.106-1.8,1.523-1.566,1.322-3.254,3.205-5.131,4.572a9.105,9.105,0,0,1-4.5,1.891l-.076,0c0,.03,0,.061-.006.091-.237,3.377-2.44,7.447-3.81,9.494a12.268,12.268,0,0,1-2.447,2.637,5.188,5.188,0,0,1-8.311-1.864,1.025,1.025,0,0,1-.088-.379,4.38,4.38,0,0,1-3.214-1.09A4.119,4.119,0,0,1,18,25.993a3.761,3.761,0,0,1-3.252-.3,3.639,3.639,0,0,1-1.814-4.487,12.479,12.479,0,0,1,3.913-5.478,9.315,9.315,0,0,0,1.5-1.324,7.271,7.271,0,0,0,.974-1.709,3.374,3.374,0,0,0,.135-.578,1.023,1.023,0,0,1,.635-1.941,1.839,1.839,0,0,1,1.112.769A2.012,2.012,0,0,1,21.52,12.1,7.922,7.922,0,0,1,19.935,15.7a11.292,11.292,0,0,1-1.8,1.624,11.42,11.42,0,0,0-2.923,3.615,2.789,2.789,0,0,0-.318,2.041,1.8,1.8,0,0,0,.875.94,2.143,2.143,0,0,0,2.3-.217,24.9,24.9,0,0,0,2.674-2.154A18.43,18.43,0,0,0,27,11.97a4.026,4.026,0,0,0-.61-3.529,4.082,4.082,0,0,0-3.312-1.246,12.732,12.732,0,0,0-2.951.339c-1.665.42-2.545,1.429-3.719,2.6-2.071,2.075-3.343,4.583-5.281,6.7Q11.108,16.864,11.083,16.888Zm22.589-.374c-.519,4.329-4.286,9.9-7.674,12.2a6.938,6.938,0,0,1-1.586.8,3.216,3.216,0,0,0,5.131,1.027,10.126,10.126,0,0,0,2.024-2.177c1.23-1.837,3.257-5.468,3.469-8.5A3.413,3.413,0,0,0,33.672,16.514ZM19.822,24.987a1.017,1.017,0,0,1,.215.627,2.294,2.294,0,0,0,.589,1.721,2.127,2.127,0,0,0,1.349.534,4.675,4.675,0,0,0,2.872-.844c3.088-2.1,6.579-7.264,6.827-11.121a5.708,5.708,0,0,0-1.324-4.181,2.169,2.169,0,0,0-.61-.49,1.326,1.326,0,0,0-.214-.075,1.013,1.013,0,0,1-.355.092,8.363,8.363,0,0,1-.166,1.148A20.633,20.633,0,0,1,22.03,23.142C21.367,23.676,20.625,24.392,19.822,24.987Z" transform="translate(0 0)"/></g></g></svg>