<svg xmlns="http://www.w3.org/2000/svg" width="60" height="75" viewBox="0 0 60 75"><g transform="translate(-213 -285)"><g transform="translate(-83.26 -223.389)" opacity="0.9"><g transform="translate(304.261 510.389)"><g transform="translate(30.878 0.722) rotate(15.009)"><path d="M15.189,65.331c-1.357,1.717-2.876,2.577-4.373,2.577-1.945,0-3.928-1.454-5.544-4.35C2.174,58.007,0,46.834,0,33.954S2.174,9.9,5.272,4.35C6.888,1.454,8.871,0,10.816,0s3.928,1.454,5.544,4.35c3.1,5.551,5.272,16.725,5.272,29.6,0,10.1-1.337,19.154-3.408,25.266a19.558,19.558,0,0,1,.371,7.455,1.39,1.39,0,0,1-2.644.3Q15.573,66.1,15.189,65.331Zm1.34-10.145a88.469,88.469,0,0,0,2.322-21.232c0-10.573-1.469-19.955-3.763-25.767a14.859,14.859,0,0,0-2.344-4.224A2.737,2.737,0,0,0,10.816,2.78,2.737,2.737,0,0,0,8.887,3.963,14.858,14.858,0,0,0,6.544,8.187C4.249,14,2.78,23.381,2.78,33.954S4.249,53.909,6.544,59.721a14.856,14.856,0,0,0,2.344,4.224,2.737,2.737,0,0,0,1.928,1.183,2.737,2.737,0,0,0,1.928-1.183,9.335,9.335,0,0,0,.876-1.208q-.214-.284-.433-.535a3.751,3.751,0,0,0-2.355-1.5,1.39,1.39,0,0,1-1.264-1.384V51.95a1.39,1.39,0,0,1,2.018-1.24,12.224,12.224,0,0,1,4.943,4.476Zm-1.187,3.87a10.054,10.054,0,0,0-2.992-4.53v3.69a6.569,6.569,0,0,1,2.2,1.4q.208.193.414.411.062-.151.123-.305.129-.322.254-.666Z" fill="#95c1c3" fill-rule="evenodd"/></g><path d="M315.076,510.389c-1.945,0-3.928,1.454-5.544,4.35-3.1,5.551-5.272,16.725-5.272,29.6s2.174,24.053,5.272,29.6c1.616,2.9,3.6,4.35,5.544,4.35s3.928-1.454,5.544-4.35c3.1-5.551,5.272-16.725,5.272-29.6s-2.174-24.054-5.272-29.6C319,511.843,317.021,510.389,315.076,510.389Zm-1.211,64.646v-45.97l-6.57,7.77c-.166,2.409-.254,4.923-.254,7.508,0,10.573,1.469,19.955,3.763,25.767a14.869,14.869,0,0,0,2.344,4.224,5.334,5.334,0,0,0,.717.7Zm2.78-45.679v45.363c.12-.118.24-.247.36-.385a14.851,14.851,0,0,0,2.344-4.224c2.294-5.812,3.763-15.194,3.763-25.767,0-2.365-.073-4.671-.213-6.889a1.384,1.384,0,0,1-.333-.314Zm5.127-1.647a1.385,1.385,0,0,1-.317-.311l-6.161-8.349-6.344,7.734a1.383,1.383,0,0,1-.469.37c-.281,1.529-.526,3.146-.73,4.837l6.457-7.637a1.39,1.39,0,0,1,2.168.056l6.074,7.986q-.284-2.45-.678-4.686Zm-1.573-6.7q-.4-1.3-.85-2.438A14.851,14.851,0,0,0,317,514.352a2.163,2.163,0,0,0-3.857,0,14.868,14.868,0,0,0-2.344,4.224q-.49,1.242-.929,2.7l4.4-5.366a1.39,1.39,0,0,1,2.193.056Z" transform="translate(-304.261 -510.389)" fill="#95c1c3" fill-rule="evenodd"/></g></g><rect width="60" height="75" transform="translate(213 285)" fill="none"/></g></svg>