<svg xmlns="http://www.w3.org/2000/svg" width="60" height="75" viewBox="0 0 60 75"><g transform="translate(-217 -409)"><g transform="translate(15.38 -36.214)"><g transform="translate(202.611 462.214)"><path d="M183.2,470.073h-5.124a1.076,1.076,0,0,1-1.019-1.413,45,45,0,0,0,2.176-8.654c.293-2.606.072-5.051-1.29-7.02-1.172-1.7-3.178-3.005-6.312-3.817a63.74,63.74,0,0,1-8.179-2.462c-3.421-1.451-5.075-3.328-5.312-6.894a5.193,5.193,0,0,1,2.844-4.88c1.861-1.108,4.849-1.826,9.294-1.574,18.733,1.059,29.677,6.967,36.088,13.613a31.923,31.923,0,0,1,9.113,22.082,1.075,1.075,0,0,1-1.072,1.02h-4.083v3.412a1.075,1.075,0,0,1-1.073,1.077h-8.794a1.075,1.075,0,0,1-1.074-1.077v-3.412H194.14v3.412a1.075,1.075,0,0,1-1.073,1.077h-8.794a1.075,1.075,0,0,1-1.073-1.077Zm2.147.229v2.106h6.647V470.3Zm16.184,0v2.106h6.647V470.3Zm11.8-2.382a30.251,30.251,0,0,0-8.506-19.451c-6.152-6.377-16.691-11.944-34.666-12.96-3.856-.218-6.463.315-8.077,1.276a3.149,3.149,0,0,0-1.8,2.885c.175,2.642,1.471,3.978,4.006,5.053a61.649,61.649,0,0,0,7.88,2.36c3.769.977,6.129,2.637,7.538,4.675a11.1,11.1,0,0,1,1.781,6.685,35.031,35.031,0,0,1-1.936,9.476Z" transform="translate(-158.125 -433.309)" fill="#95c1c3" fill-rule="evenodd"/></g></g><rect width="60" height="75" transform="translate(217 409)" fill="none"/></g></svg>